<svg width="524" height="337" viewBox="0 0 524 337" fill="none" xmlns="http://www.w3.org/2000/svg">
<path d="M445.588 52.5416C437.706 47.1578 432.73 45.1456 423.588 42.0416C412.957 39.9505 406.777 39.0182 395.106 38.0649C386.853 37.0769 381.221 37.4928 366.833 39.4329C354.383 40.9615 348.907 43.2606 339.929 48.097C330.999 54.3515 326.882 58.1232 319.694 64.7076L319.409 64.9692L303.905 83.6655L286.576 104.642L272.44 123.338L257.848 142.946L245.536 162.099L232.768 181.707L219.999 203.595C214.516 217.888 207.031 219.036 186.255 209.523C170.716 199.036 169.07 192.34 178.503 178.971L194.463 154.802L208.143 133.37L222.279 111.026L236.416 88.6815L251.92 65.4252C258.25 54.6534 260.359 48.753 261.04 38.5209C260.565 25.2311 258.056 18.9252 249.64 9.79249C237.715 1.13208 231.027 -1.13291 219.087 1.58438C207.485 5.05917 201.941 8.47859 193.095 16.1766L175.767 38.0648L162.999 59.4971L152.055 80.9294L142.934 101.906L134.27 125.162L127.886 147.962L120.59 171.219L113.75 192.651L104.63 217.731C98.8046 227.229 94.8849 232.179 85.4777 239.62C76.8761 246.286 72.0949 249.276 63.5894 254.212L35.317 261.052C21.1235 262.771 16.467 266.567 9.78069 274.732C1.77339 282.996 -0.11678 289.357 0.660558 303.46C4.93531 317.78 8.33906 323.349 16.1648 328.997C27.6044 333.795 34.3038 335.347 46.7172 336.293C59.9745 335.243 65.3473 334.107 73.6215 331.733C84.2037 330.052 89.07 329.925 96.8778 330.365L119.222 329.453L144.758 329.909H168.471L193.095 330.821L216.351 331.277L241.432 331.733H263.32L288.4 330.365L312.113 328.997H337.193H360.905L384.162 329.453L407.588 331.042H430.588H456.588C466.512 329.623 472.178 328.171 482.588 323.542C492.826 318.137 497.997 314.447 506.088 306.542C511.66 299.204 514.772 295.007 519.588 282.542C521.369 273.238 521.981 267.482 522.588 256.542L519.588 229.542L515.588 206.542L511.088 182.042L506.088 160.542L500.088 136.542L492.088 112.042L482.588 87.5416C477.592 78.8922 474.102 74.4634 467.088 67.0416C459.311 61.5553 454.747 58.421 445.588 52.5416Z" stroke="black"/>
</svg>
